<?xml version="1.0" encoding="UTF-8" standalone="no"?>
<!-- Created with Inkscape (http://www.inkscape.org/) -->

<svg
   xmlns:dc="http://purl.org/dc/elements/1.1/"
   xmlns:cc="http://creativecommons.org/ns#"
   xmlns:rdf="http://www.w3.org/1999/02/22-rdf-syntax-ns#"
   xmlns:svg="http://www.w3.org/2000/svg"
   xmlns="http://www.w3.org/2000/svg"
   xmlns:sodipodi="http://sodipodi.sourceforge.net/DTD/sodipodi-0.dtd"
   xmlns:inkscape="http://www.inkscape.org/namespaces/inkscape"
   width="23.166666mm"
   height="23.166666mm"
   viewBox="0 0 23.166666 23.166666"
   version="1.1"
   id="svg8"
   inkscape:version="0.92.2 5c3e80d, 2017-08-06"
   sodipodi:docname="ba.svg"
   inkscape:export-filename="/home/guest/finti/git/o-yamabiko/top/media/tusin201809/ba.png"
   inkscape:export-xdpi="300.043"
   inkscape:export-ydpi="300.043">
  <defs
     id="defs2" />
  <sodipodi:namedview
     id="base"
     pagecolor="#ffffff"
     bordercolor="#666666"
     borderopacity="1.0"
     inkscape:pageopacity="0.0"
     inkscape:pageshadow="2"
     inkscape:zoom="0.7"
     inkscape:cx="-325.59618"
     inkscape:cy="-151.04041"
     inkscape:document-units="mm"
     inkscape:current-layer="layer1"
     showgrid="false"
     fit-margin-top="0"
     fit-margin-left="0"
     fit-margin-right="0"
     fit-margin-bottom="0"
     inkscape:window-width="1366"
     inkscape:window-height="713"
     inkscape:window-x="0"
     inkscape:window-y="33"
     inkscape:window-maximized="1" />
  <metadata
     id="metadata5">
    <rdf:RDF>
      <cc:Work
         rdf:about="">
        <dc:format>image/svg+xml</dc:format>
        <dc:type
           rdf:resource="http://purl.org/dc/dcmitype/StillImage" />
        <dc:title />
      </cc:Work>
    </rdf:RDF>
  </metadata>
  <g
     inkscape:label="Layer 1"
     inkscape:groupmode="layer"
     id="layer1"
     transform="translate(-55.696429,-53.339289)">
    <path
       style="opacity:1;fill:#ffffff;fill-opacity:1;stroke:#78baf4;stroke-width:2;stroke-linecap:round;stroke-linejoin:round;stroke-miterlimit:4;stroke-dasharray:none;stroke-opacity:1"
       d="m 77.863096,75.505956 -21.166667,0 0,-21.166667 21.166667,0 z"
       id="path815" />
    <g
       aria-label="場"
       style="font-style:normal;font-variant:normal;font-weight:bold;font-stretch:normal;font-size:16.93333244px;line-height:125%;font-family:'Rounded Mgen+ 2pp';-inkscape-font-specification:'Rounded Mgen+ 2pp Bold';text-align:end;letter-spacing:0px;word-spacing:0px;writing-mode:lr-tb;text-anchor:end;opacity:0.98999999;fill:#000000;fill-opacity:1;stroke:none;stroke-width:0.26458332px;stroke-linecap:butt;stroke-linejoin:miter;stroke-opacity:1"
       id="text819">
      <path
         d="m 60.315551,62.836664 q -0.380338,0 -0.628385,-0.248047 -0.248047,-0.264583 -0.248047,-0.628386 0,-0.380338 0.248047,-0.644921 0.264583,-0.264584 0.628385,-0.264584 h 0.413411 q 0.148829,0 0.148829,-0.132291 v -2.728516 q 0,-0.396875 0.264583,-0.661458 0.28112,-0.28112 0.661458,-0.28112 h 0.264584 q 0.396875,0 0.661458,0.28112 0.264583,0.28112 0.264583,0.661458 v 2.728516 q 0,0.132291 0.148828,0.132291 h 0.446485 q 0.380338,0 0.628385,0.264584 0.248047,0.264583 0.248047,0.644921 0,0.363803 -0.248047,0.628386 -0.248047,0.248047 -0.628385,0.248047 h -0.446485 q -0.148828,0 -0.148828,0.132291 v 4.48138 q 0,0.132292 0.148828,0.09922 0.08268,-0.03307 0.330729,-0.115755 0.264584,-0.08268 0.396875,-0.132292 h 0.01654 q 0.01654,-0.01654 0.03307,-0.01654 0.115755,-0.03307 0.09922,-0.132292 -0.08268,-0.23151 0,-0.463021 0.09922,-0.248047 0.314192,-0.363802 0.826823,-0.496093 1.554427,-1.091406 0.03307,-0.03307 0.01654,-0.04961 -0.01654,-0.03307 -0.04961,-0.03307 h -0.926041 q -0.314193,0 -0.545703,-0.214974 -0.231511,-0.231511 -0.231511,-0.545703 0,-0.330729 0.214974,-0.56224 0.231511,-0.23151 0.56224,-0.23151 h 9.078515 q 0.314193,0 0.545703,0.23151 0.23151,0.231511 0.23151,0.56224 0,0.314192 -0.23151,0.545703 -0.23151,0.214974 -0.545703,0.214974 h -5.622396 q -0.132291,0 -0.248047,0.09922 l -0.380338,0.396874 q -0.03307,0.06615 0.04961,0.09922 h 5.638932 q 0.396875,0 0.661459,0.28112 0.281119,0.264583 0.281119,0.644922 v 0.429948 q 0,2.083593 -0.214974,3.12539 -0.214974,1.041797 -0.644921,1.389063 -0.429948,0.347265 -1.273308,0.347265 -0.23151,0 -1.041796,-0.03307 -0.380339,-0.01654 -0.628386,-0.281119 -0.248047,-0.264584 -0.297656,-0.628386 -0.01654,-0.330729 0.23151,-0.578776 0.248047,-0.264583 0.611849,-0.248047 0.181901,0.01654 0.463021,0.01654 0.297656,0 0.429948,-0.165365 0.148828,-0.181901 0.214974,-0.777213 0.08268,-0.595313 0.08268,-1.802474 V 67.33458 q 0,-0.09922 -0.09922,-0.09922 -0.09922,0 -0.148828,0.08268 -0.611849,1.141015 -1.637109,2.33164 -1.02526,1.174089 -2.149739,2.067057 -0.28112,0.214974 -0.677995,0.181901 -0.380339,-0.01654 -0.644922,-0.297656 -0.214974,-0.23151 -0.198438,-0.562239 0.03307,-0.33073 0.297657,-0.512631 1.752864,-1.30638 3.059244,-3.174999 0.08268,-0.115756 -0.04961,-0.115756 h -0.727604 q -0.148828,0 -0.214974,0.09922 -1.719792,2.116667 -4.233333,3.571875 -0.314193,0.165365 -0.694531,0.115755 -0.363803,-0.04961 -0.595313,-0.347265 -0.198437,-0.231511 -0.148828,-0.529167 0.06615,-0.314193 0.330729,-0.463021 1.802474,-0.975651 3.175,-2.348177 0.03307,-0.03307 0,-0.06615 -0.01654,-0.03307 -0.04961,-0.03307 h -0.942579 q -0.132291,0 -0.248046,0.06615 -0.04961,0.03307 -0.429948,0.28112 -0.231511,0.148828 -0.479558,0.132292 -0.115755,0 -0.115755,0.09922 0.03307,0.33073 -0.148828,0.644922 -0.165364,0.297656 -0.479557,0.446485 -1.670182,0.711067 -3.538802,1.240234 -0.363802,0.09922 -0.677995,-0.09922 -0.314192,-0.198437 -0.363802,-0.578776 v -0.03307 q -0.04961,-0.396875 0.181901,-0.711067 0.231511,-0.33073 0.611849,-0.413412 0.06615,-0.01654 0.214974,-0.04961 0.165365,-0.03307 0.23151,-0.04961 0.148829,-0.03307 0.148829,-0.181901 v -5.060156 q 0,-0.132291 -0.148829,-0.132291 z m 5.55625,-5.539714 h 7.160286 q 0.396875,0 0.661458,0.28112 0.28112,0.28112 0.28112,0.677995 v 3.869531 q 0,0.396875 -0.28112,0.677995 -0.264583,0.264583 -0.661458,0.264583 h -6.002734 -1.157552 q -0.396875,0 -0.677995,-0.264583 -0.264583,-0.28112 -0.264583,-0.677995 v -3.869531 q 0,-0.396875 0.264583,-0.677995 0.28112,-0.28112 0.677995,-0.28112 z m 5.903515,4.316016 v -0.496094 q 0,-0.132292 -0.165365,-0.148828 h -4.43177 q -0.148828,0 -0.148828,0.148828 v 0.496094 q 0,0.132292 0.148828,0.132292 h 4.43177 q 0.165365,0 0.165365,-0.132292 z m 0,-2.033984 v -0.463021 q 0,-0.132292 -0.165365,-0.132292 h -4.43177 q -0.148828,0 -0.148828,0.132292 v 0.463021 q 0,0.148828 0.148828,0.165364 h 4.43177 q 0.165365,-0.01654 0.165365,-0.165364 z"
         style="font-size:16.93333244px;stroke-width:0.26458332px"
         id="path1988" />
    </g>
  </g>
</svg>
