<?xml version="1.0" encoding="UTF-8" standalone="no"?>
<!-- Created with Inkscape (http://www.inkscape.org/) -->

<svg
   xmlns:dc="http://purl.org/dc/elements/1.1/"
   xmlns:cc="http://creativecommons.org/ns#"
   xmlns:rdf="http://www.w3.org/1999/02/22-rdf-syntax-ns#"
   xmlns:svg="http://www.w3.org/2000/svg"
   xmlns="http://www.w3.org/2000/svg"
   xmlns:sodipodi="http://sodipodi.sourceforge.net/DTD/sodipodi-0.dtd"
   xmlns:inkscape="http://www.inkscape.org/namespaces/inkscape"
   width="23.166666mm"
   height="23.166666mm"
   viewBox="0 0 23.166666 23.166666"
   version="1.1"
   id="svg8"
   inkscape:version="0.92.2 5c3e80d, 2017-08-06"
   sodipodi:docname="nai.svg"
   inkscape:export-filename="/home/guest/finti/git/o-yamabiko/top/media/tusin201809/nai.png"
   inkscape:export-xdpi="300.043"
   inkscape:export-ydpi="300.043">
  <defs
     id="defs2" />
  <sodipodi:namedview
     id="base"
     pagecolor="#ffffff"
     bordercolor="#666666"
     borderopacity="1.0"
     inkscape:pageopacity="0.0"
     inkscape:pageshadow="2"
     inkscape:zoom="0.7"
     inkscape:cx="-334.7919"
     inkscape:cy="77.531014"
     inkscape:document-units="mm"
     inkscape:current-layer="layer1"
     showgrid="false"
     fit-margin-top="0"
     fit-margin-left="0"
     fit-margin-right="0"
     fit-margin-bottom="0"
     inkscape:window-width="1366"
     inkscape:window-height="713"
     inkscape:window-x="0"
     inkscape:window-y="33"
     inkscape:window-maximized="1" />
  <metadata
     id="metadata5">
    <rdf:RDF>
      <cc:Work
         rdf:about="">
        <dc:format>image/svg+xml</dc:format>
        <dc:type
           rdf:resource="http://purl.org/dc/dcmitype/StillImage" />
        <dc:title></dc:title>
      </cc:Work>
    </rdf:RDF>
  </metadata>
  <g
     inkscape:label="Layer 1"
     inkscape:groupmode="layer"
     id="layer1"
     transform="translate(-55.696429,-53.339289)">
    <path
       style="opacity:1;fill:#ffffff;fill-opacity:1;stroke:#78baf4;stroke-width:2;stroke-linecap:round;stroke-linejoin:round;stroke-miterlimit:4;stroke-dasharray:none;stroke-opacity:1"
       d="m 77.863096,75.505956 -21.166667,0 0,-21.166667 21.166667,0 z"
       id="path815" />
    <g
       aria-label="内"
       style="font-style:normal;font-variant:normal;font-weight:bold;font-stretch:normal;font-size:16.93333244px;line-height:125%;font-family:'Rounded Mgen+ 2pp';-inkscape-font-specification:'Rounded Mgen+ 2pp Bold';text-align:end;letter-spacing:0px;word-spacing:0px;writing-mode:lr-tb;text-anchor:end;opacity:0.98999999;fill:#000000;fill-opacity:1;stroke:none;stroke-width:0.26458332px;stroke-linecap:butt;stroke-linejoin:miter;stroke-opacity:1"
       id="text819">
      <path
         d="m 61.312458,72.456156 q -0.396875,0 -0.661458,-0.28112 -0.264584,-0.28112 -0.264584,-0.677995 v -11.34401 q 0,-0.396874 0.264584,-0.661458 0.28112,-0.264583 0.661458,-0.264583 h 4.812109 q 0.132292,0 0.132292,-0.132292 v -0.644922 q 0,-0.396875 0.28112,-0.661458 0.281119,-0.28112 0.677994,-0.28112 h 0.33073 q 0.396874,0 0.661458,0.28112 0.264583,0.264583 0.264583,0.661458 v 0.644922 q 0,0.132292 0.148828,0.132292 h 4.927865 q 0.396875,0 0.661458,0.28112 0.264583,0.264583 0.264583,0.644921 v 9.558073 q 0,0.677995 -0.03307,1.07487 -0.01654,0.380338 -0.115755,0.727604 -0.09922,0.347265 -0.248047,0.479557 -0.148828,0.148828 -0.479557,0.248047 -0.330729,0.115755 -0.711068,0.148828 -0.363802,0.03307 -1.008724,0.03307 -0.446484,0 -1.752864,-0.06615 -0.413412,-0.01654 -0.711068,-0.28112 -0.28112,-0.264583 -0.297656,-0.677994 -0.03307,-0.396875 0.23151,-0.661459 0.264584,-0.264583 0.644922,-0.248047 1.124479,0.04961 1.455208,0.04961 0.611849,0 0.711068,-0.09922 0.115755,-0.09922 0.115755,-0.677995 v -8.516275 q 0,-0.132292 -0.148828,-0.148828 h -3.538802 q -0.148828,0 -0.165364,0.148828 -0.03307,0.396875 -0.198438,1.124479 -0.03307,0.132291 0.08268,0.23151 2.017447,1.570964 3.720702,3.654557 0.231511,0.28112 0.165365,0.661459 -0.06615,0.380338 -0.396875,0.595312 l -0.181901,0.115755 q -0.330729,0.214974 -0.727604,0.148828 -0.396875,-0.06614 -0.628385,-0.380338 -1.405599,-1.785938 -2.745052,-2.926953 -0.08268,-0.08268 -0.148829,0.03307 -1.091406,1.802474 -3.174999,3.108854 -0.33073,0.214974 -0.744141,0.132291 -0.396875,-0.08268 -0.661458,-0.413411 l -0.115755,-0.132292 q -0.01654,-0.03307 -0.04961,-0.01654 -0.03307,0.01654 -0.03307,0.04961 v 4.266406 q 0,0.396875 -0.28112,0.677995 -0.264583,0.28112 -0.644921,0.28112 z M 62.734593,61.09561 q -0.148828,0 -0.148828,0.148828 v 4.71289 q 0,0.03307 0.03307,0.04961 0.03307,0.01654 0.06615,0 0.06615,-0.04961 0.132292,-0.08268 1.570963,-0.843359 2.397786,-1.951302 0.826823,-1.124479 0.992187,-2.711979 0.03307,-0.148828 -0.115755,-0.165364 z"
         style="font-size:16.93333244px;stroke-width:0.26458332px"
         id="path878" />
    </g>
  </g>
</svg>
