<?xml version="1.0" encoding="UTF-8" standalone="no"?>
<!-- Created with Inkscape (http://www.inkscape.org/) -->

<svg
   xmlns:dc="http://purl.org/dc/elements/1.1/"
   xmlns:cc="http://creativecommons.org/ns#"
   xmlns:rdf="http://www.w3.org/1999/02/22-rdf-syntax-ns#"
   xmlns:svg="http://www.w3.org/2000/svg"
   xmlns="http://www.w3.org/2000/svg"
   xmlns:sodipodi="http://sodipodi.sourceforge.net/DTD/sodipodi-0.dtd"
   xmlns:inkscape="http://www.inkscape.org/namespaces/inkscape"
   width="23.166666mm"
   height="23.166666mm"
   viewBox="0 0 23.166666 23.166666"
   version="1.1"
   id="svg8"
   inkscape:version="0.92.2 5c3e80d, 2017-08-06"
   sodipodi:docname="yen.svg"
   inkscape:export-filename="/home/guest/finti/git/o-yamabiko/top/media/tusin201809/yen.png"
   inkscape:export-xdpi="300.043"
   inkscape:export-ydpi="300.043">
  <defs
     id="defs2" />
  <sodipodi:namedview
     id="base"
     pagecolor="#ffffff"
     bordercolor="#666666"
     borderopacity="1.0"
     inkscape:pageopacity="0.0"
     inkscape:pageshadow="2"
     inkscape:zoom="0.7"
     inkscape:cx="-367.6099"
     inkscape:cy="-93.897557"
     inkscape:document-units="mm"
     inkscape:current-layer="layer1"
     showgrid="false"
     fit-margin-top="0"
     fit-margin-left="0"
     fit-margin-right="0"
     fit-margin-bottom="0"
     inkscape:window-width="1366"
     inkscape:window-height="713"
     inkscape:window-x="0"
     inkscape:window-y="33"
     inkscape:window-maximized="1" />
  <metadata
     id="metadata5">
    <rdf:RDF>
      <cc:Work
         rdf:about="">
        <dc:format>image/svg+xml</dc:format>
        <dc:type
           rdf:resource="http://purl.org/dc/dcmitype/StillImage" />
        <dc:title />
      </cc:Work>
    </rdf:RDF>
  </metadata>
  <g
     inkscape:label="Layer 1"
     inkscape:groupmode="layer"
     id="layer1"
     transform="translate(-55.696429,-53.339289)">
    <path
       style="opacity:1;fill:#ffffff;fill-opacity:1;stroke:#78baf4;stroke-width:2;stroke-linecap:round;stroke-linejoin:round;stroke-miterlimit:4;stroke-dasharray:none;stroke-opacity:1"
       d="m 77.863096,75.505956 -21.166667,0 0,-21.166667 21.166667,0 z"
       id="path815" />
    <g
       aria-label="￥"
       style="font-style:normal;font-variant:normal;font-weight:bold;font-stretch:normal;font-size:16.93333244px;line-height:125%;font-family:'Rounded Mgen+ 2pp';-inkscape-font-specification:'Rounded Mgen+ 2pp Bold';text-align:end;letter-spacing:0px;word-spacing:0px;writing-mode:lr-tb;text-anchor:end;opacity:0.98999999;fill:#000000;fill-opacity:1;stroke:none;stroke-width:0.26458332px;stroke-linecap:butt;stroke-linejoin:miter;stroke-opacity:1"
       id="text819">
      <path
         d="m 65.408778,64.20919 -3.191536,-5.159375 q -0.165365,-0.264583 -0.01654,-0.545703 0.165364,-0.28112 0.479557,-0.28112 h 0.810286 q 0.942578,0 1.422136,0.859896 l 2.662369,4.745963 q 0,0.01654 0.01654,0.01654 0.03307,0 0.03307,-0.01654 l 2.645833,-4.745963 q 0.463021,-0.843359 1.422135,-0.859896 h 0.744141 q 0.314192,0 0.463021,0.28112 0.165364,0.264583 0,0.545703 l -3.191537,5.159375 q -0.03307,0.03307 -0.01654,0.08268 0.03307,0.03307 0.08268,0.03307 h 1.719792 q 0.281119,0 0.479557,0.214974 0.214974,0.214974 0.214974,0.51263 0,0.28112 -0.214974,0.479557 -0.198438,0.198438 -0.479557,0.198438 H 68.94758 q -0.148828,0 -0.148828,0.148828 v 0.959114 q 0,0.148829 0.132292,0.148829 h 2.563151 q 0.281119,0 0.479557,0.198437 0.214974,0.198438 0.214974,0.496094 0,0.28112 -0.214974,0.496093 -0.198438,0.214974 -0.479557,0.214974 h -2.563151 q -0.132292,0 -0.132292,0.148829 v 1.091406 q 0,0.396875 -0.297656,0.677994 -0.28112,0.28112 -0.677995,0.28112 h -0.529167 q -0.396875,0 -0.677994,-0.28112 -0.28112,-0.297656 -0.28112,-0.677994 v -1.091406 q 0,-0.148829 -0.148828,-0.148829 h -2.563151 q -0.28112,0 -0.496094,-0.214974 -0.198437,-0.214973 -0.198437,-0.496093 0,-0.297656 0.198437,-0.496094 0.214974,-0.198437 0.496094,-0.198437 h 2.563151 q 0.148828,0 0.148828,-0.148829 v -0.959114 q 0,-0.148828 -0.165365,-0.148828 h -2.546614 q -0.28112,0 -0.496094,-0.198438 -0.198437,-0.198437 -0.198437,-0.479557 0,-0.297656 0.198437,-0.51263 0.214974,-0.214974 0.496094,-0.214974 h 1.719791 q 0.04961,0 0.06615,-0.03307 0.03307,-0.04961 0,-0.08268 z"
         style="font-size:16.93333244px;stroke-width:0.26458332px"
         id="path1433" />
    </g>
  </g>
</svg>
