<?xml version="1.0" standalone="no"?>
<!DOCTYPE svg PUBLIC "-//W3C//DTD SVG 20010904//EN"
 "http://www.w3.org/TR/2001/REC-SVG-20010904/DTD/svg10.dtd">
<svg version="1.0" xmlns="http://www.w3.org/2000/svg"
 width="3000.000000pt" height="3000.000000pt" viewBox="0 0 3000.000000 3000.000000"
 preserveAspectRatio="xMidYMid meet">
<metadata>
Created by potrace 1.11, written by Peter Selinger 2001-2013
</metadata>
<g transform="translate(0.000000,3000.000000) scale(0.100000,-0.100000)"
fill="#000000" stroke="none">
<path d="M5728 29825 c-2 -2 -39 -6 -84 -9 -78 -6 -111 -11 -164 -21 -14 -3
-38 -8 -54 -11 -120 -21 -330 -88 -398 -125 -13 -8 -25 -14 -28 -14 -3 -1 -31
-16 -64 -35 -84 -48 -171 -133 -213 -207 -31 -57 -77 -178 -89 -238 -32 -162
-44 -226 -48 -255 -6 -47 -16 -128 -21 -165 -2 -16 -7 -66 -10 -110 -4 -44
-10 -83 -13 -87 -7 -7 -34 -11 -152 -23 -54 -5 -107 -11 -185 -19 -22 -3 -71
-8 -110 -11 -38 -4 -77 -8 -85 -10 -8 -2 -51 -7 -94 -11 -44 -3 -88 -7 -98 -9
-10 -2 -55 -7 -101 -10 -45 -4 -89 -8 -97 -10 -8 -2 -45 -7 -81 -10 l-65 -7
-18 104 c-42 245 -115 489 -193 646 -98 196 -204 255 -463 256 -164 1 -240 -7
-388 -40 -351 -78 -602 -217 -715 -394 -41 -66 -74 -167 -84 -259 -12 -114 -6
-392 12 -526 5 -37 13 -106 21 -165 3 -25 7 -55 9 -66 3 -19 -5 -24 -63 -39
-86 -23 -398 -123 -437 -140 -16 -8 -64 -28 -105 -45 -260 -108 -420 -242
-478 -400 -95 -262 -212 -733 -247 -995 -25 -190 -25 -399 0 -500 34 -135 93
-224 190 -282 73 -44 117 -56 219 -56 175 0 367 44 786 183 198 65 359 124
391 140 11 7 23 9 26 7 4 -4 47 -251 58 -332 5 -39 33 -214 39 -240 2 -11 11
-69 21 -130 24 -161 25 -169 30 -185 2 -8 6 -33 10 -55 3 -22 8 -53 11 -70 3
-16 7 -41 9 -55 3 -26 22 -142 31 -195 3 -16 7 -41 9 -55 4 -29 13 -84 20
-120 3 -14 7 -38 9 -55 15 -96 26 -162 30 -180 2 -11 7 -40 11 -65 9 -53 13
-76 20 -110 3 -14 7 -41 10 -60 2 -19 14 -89 25 -155 12 -66 25 -147 31 -180
5 -33 16 -94 24 -135 8 -41 17 -91 19 -110 6 -36 29 -168 65 -365 11 -60 27
-148 36 -195 8 -47 17 -96 20 -110 3 -14 12 -61 20 -105 8 -44 23 -125 35
-180 11 -55 23 -111 25 -125 3 -14 18 -90 35 -170 17 -80 33 -156 36 -170 3
-14 7 -33 10 -42 3 -10 7 -30 10 -45 13 -74 86 -308 113 -360 30 -59 41 -71
112 -123 109 -78 280 -96 544 -55 73 12 230 54 335 90 333 116 600 308 694
499 21 43 42 97 45 120 13 86 7 247 -14 406 -2 19 -7 58 -11 85 -3 28 -12 86
-19 130 -8 44 -17 100 -20 124 -6 51 -11 80 -30 186 -8 44 -17 96 -20 115 -6
34 -14 86 -21 125 -2 11 -8 43 -13 70 -6 28 -12 66 -15 85 -3 19 -10 58 -15
85 -19 94 -63 330 -66 350 -1 11 -9 56 -18 100 -8 44 -18 94 -21 110 -4 17 -9
41 -12 55 -2 14 -19 97 -35 185 -17 88 -33 169 -35 180 -2 11 -7 36 -10 55 -8
40 -11 56 -25 125 -6 28 -13 61 -15 75 -3 14 -30 149 -60 300 -31 151 -57 284
-59 295 -2 11 -20 99 -39 195 -32 153 -44 214 -60 295 -2 11 -18 88 -36 170
-18 83 -34 164 -37 180 -3 17 -16 81 -29 142 -13 62 -24 117 -24 122 0 8 30
17 95 27 17 3 93 17 170 31 77 13 149 26 160 27 11 2 34 6 50 9 17 4 46 9 65
12 19 3 48 8 64 11 28 6 28 6 22 -32 -3 -22 -8 -59 -11 -84 -3 -25 -8 -56 -10
-70 -5 -24 -30 -217 -41 -310 -3 -25 -7 -60 -10 -79 -8 -61 -6 -175 5 -221 39
-171 172 -323 353 -403 335 -148 906 -58 1225 195 171 135 259 326 363 782 16
70 31 130 34 133 13 13 375 -154 460 -212 21 -14 39 -25 42 -25 11 0 129 -96
170 -138 64 -65 82 -109 77 -184 -12 -193 -94 -306 -292 -405 -122 -61 -156
-75 -394 -159 -340 -120 -526 -223 -677 -374 -96 -96 -119 -128 -162 -220 -15
-33 -21 -65 -21 -121 1 -170 109 -284 318 -336 105 -26 503 -24 700 3 22 3 51
7 65 9 14 2 50 6 80 10 65 7 257 41 315 55 22 6 51 12 65 15 14 2 52 11 85 20
33 8 67 17 76 19 117 29 396 124 484 165 196 92 270 129 363 183 59 34 112 66
117 70 6 5 55 40 110 79 494 352 813 863 872 1399 10 85 9 308 -1 390 -50 423
-260 756 -669 1059 -416 308 -1098 602 -1836 791 -47 11 -88 23 -92 25 -3 3 0
31 8 62 20 84 19 79 41 198 52 276 58 428 27 607 -12 68 -67 162 -134 229 -70
69 -124 104 -218 139 -66 25 -70 26 -178 46 -68 12 -328 27 -337 19z"/>
<path d="M15976 28373 c-49 -7 -128 -22 -175 -34 -47 -11 -94 -22 -105 -24
-10 -3 -55 -16 -100 -31 -305 -98 -492 -226 -571 -389 -36 -75 -47 -126 -46
-215 1 -63 10 -180 16 -212 3 -12 7 -40 10 -63 3 -22 8 -48 11 -57 5 -16 -2
-18 -48 -19 -29 0 -107 -2 -173 -4 -66 -2 -232 -6 -370 -9 -511 -14 -789 -25
-847 -36 -142 -27 -307 -166 -504 -425 -200 -263 -395 -607 -470 -831 -65
-192 -46 -328 60 -428 46 -44 147 -83 266 -102 45 -7 85 -14 105 -18 11 -2 55
-7 97 -10 42 -4 86 -9 96 -11 17 -3 122 -10 312 -20 215 -12 568 -19 1018 -19
359 1 512 -3 513 -10 0 -6 2 -20 4 -31 3 -11 7 -54 10 -95 3 -41 12 -131 19
-200 7 -69 11 -127 9 -130 -2 -2 -142 -5 -311 -6 -268 -1 -545 -9 -707 -19
-128 -7 -261 -17 -275 -20 -9 -2 -47 -6 -85 -10 -59 -5 -215 -31 -304 -49 -94
-20 -195 -67 -267 -124 -226 -178 -506 -654 -600 -1017 -31 -118 -29 -265 3
-337 58 -129 147 -187 308 -203 112 -10 315 -19 560 -25 49 -1 46 -2 -90 -49
-370 -127 -560 -240 -820 -488 -227 -217 -445 -549 -580 -883 -214 -531 -225
-1070 -30 -1480 19 -41 40 -82 45 -90 5 -8 17 -28 26 -45 76 -137 256 -314
434 -427 152 -97 417 -200 571 -223 24 -4 46 -8 49 -10 3 -2 26 -6 50 -10 25
-3 72 -10 105 -15 203 -31 695 -33 905 -4 371 51 651 133 924 270 311 156 546
347 791 645 115 139 282 434 356 627 8 21 24 6 180 -180 95 -112 186 -219 203
-239 17 -19 42 -49 55 -65 163 -198 205 -235 310 -269 113 -37 318 -2 481 80
27 14 52 25 55 25 14 -1 262 153 345 214 263 196 456 401 534 566 63 136 69
269 15 370 -82 154 -401 482 -1154 1185 -82 77 -260 240 -352 324 -56 51 -103
97 -105 104 -2 7 -2 26 2 42 l5 30 250 1 c261 0 579 10 630 19 17 2 53 7 80 9
28 3 61 7 75 10 14 3 39 8 55 12 224 47 535 383 736 796 176 361 188 636 34
793 -108 109 -216 128 -905 160 -74 3 -173 8 -220 10 -47 2 -188 7 -315 11
-126 3 -231 7 -232 7 -1 2 -6 49 -19 175 -3 31 -7 71 -9 87 -2 17 -6 71 -10
120 -4 50 -9 93 -12 98 -5 8 0 9 142 7 214 -4 452 -2 598 5 160 6 216 11 382
30 51 6 120 31 159 57 73 50 191 172 316 328 47 58 88 107 91 110 3 3 48 66
101 140 289 406 395 660 364 867 -4 29 -12 55 -17 59 -5 3 -9 13 -9 22 0 26
-78 125 -114 145 -95 53 -245 101 -353 112 -24 2 -47 6 -51 8 -4 3 -38 8 -77
11 -38 4 -81 9 -95 10 -14 2 -65 7 -115 10 -49 4 -108 9 -130 11 -42 5 -188
13 -320 20 -120 6 -451 15 -709 20 -126 3 -232 7 -235 10 -2 3 -6 11 -7 18
-69 428 -165 715 -277 830 -80 82 -135 100 -317 102 -81 1 -184 -4 -234 -12z
m-1598 -6792 c65 -13 174 -41 184 -47 4 -3 -4 -26 -19 -52 -69 -126 -177 -234
-320 -319 -73 -44 -96 -53 -136 -53 -131 0 -284 155 -270 273 11 95 96 170
230 201 66 15 249 14 331 -3z"/>
<path d="M6408 22965 c-2 -2 -48 -6 -103 -10 -55 -4 -102 -8 -105 -10 -3 -2
-33 -7 -65 -10 -33 -4 -63 -9 -66 -11 -3 -2 -21 -6 -39 -9 -160 -28 -374 -110
-548 -209 -73 -41 -187 -134 -257 -208 -120 -127 -220 -307 -261 -470 l-16
-68 -66 -20 c-216 -67 -446 -221 -608 -408 -99 -113 -103 -118 -165 -212 -127
-194 -220 -406 -292 -670 -22 -78 -42 -174 -52 -245 -3 -22 -7 -51 -9 -65 -20
-120 -28 -411 -15 -530 4 -41 11 -100 14 -130 19 -169 88 -405 170 -575 64
-133 115 -212 212 -327 l73 -87 -25 -80 c-27 -83 -60 -235 -69 -311 -14 -119
-16 -155 -16 -285 0 -169 10 -290 36 -435 2 -14 7 -41 10 -60 4 -28 34 -160
48 -215 2 -5 6 -23 10 -40 4 -16 14 -51 22 -76 8 -25 16 -54 19 -65 13 -61
115 -331 171 -452 19 -41 34 -76 34 -78 0 -7 104 -214 145 -288 l38 -69 -12
-111 c-7 -61 -13 -122 -15 -136 -2 -14 -6 -54 -10 -90 -6 -63 -10 -91 -21
-175 -3 -22 -7 -58 -9 -80 -3 -22 -7 -56 -10 -75 -3 -19 -19 -132 -36 -250
-25 -178 -79 -496 -105 -625 -86 -421 -184 -768 -295 -1040 -23 -55 -42 -104
-44 -110 -17 -59 -138 -296 -223 -440 -132 -221 -301 -447 -464 -620 -53 -56
-107 -124 -138 -175 l-21 -35 0 33 c0 29 -13 44 -22 25 -1 -5 -32 -33 -68 -63
-36 -30 -70 -59 -76 -65 -6 -5 -40 -35 -75 -65 -111 -95 -431 -421 -525 -533
-263 -319 -435 -624 -509 -902 -18 -67 -26 -80 -46 -86 -14 -3 -23 -12 -21
-20 2 -8 5 -95 7 -194 3 -146 11 -273 20 -305 8 -31 21 -151 24 -222 1 -22 6
-28 24 -28 18 0 29 -15 61 -80 39 -81 103 -182 165 -261 50 -63 209 -217 273
-264 l55 -40 -3 -60 c-1 -33 -5 -184 -9 -335 -4 -151 -9 -320 -11 -375 -1 -55
-3 -116 -3 -135 l-1 -36 -98 -37 c-138 -53 -420 -195 -532 -268 -191 -125
-386 -289 -377 -318 3 -9 24 -63 46 -120 22 -57 38 -107 36 -111 -6 -10 -102
-60 -115 -60 -5 0 -10 8 -10 17 0 9 -3 13 -6 10 -8 -7 -10 -53 -19 -362 -4
-126 -8 -264 -10 -305 -2 -41 -7 -176 -10 -300 -4 -124 -11 -229 -15 -234 -5
-5 -21 -10 -37 -12 -32 -4 -146 -16 -183 -19 -14 -2 -29 -3 -33 -4 -5 -1 -5
-11 -2 -23 7 -23 318 -915 376 -1075 16 -46 42 -120 58 -165 64 -178 165 -466
182 -518 10 -30 41 -120 70 -200 89 -252 170 -484 179 -510 4 -14 31 -90 60
-170 28 -80 71 -201 95 -270 53 -153 147 -420 209 -595 26 -71 49 -137 51
-145 2 -8 27 -80 55 -160 90 -252 117 -331 180 -510 34 -96 76 -218 95 -270
18 -52 79 -225 135 -385 56 -159 114 -326 130 -370 29 -82 75 -212 129 -369
17 -48 33 -92 36 -95 3 -6 117 11 225 33 13 3 42 8 65 12 22 3 70 12 106 19
36 8 129 25 205 39 76 14 148 28 159 30 24 5 178 33 220 41 17 2 41 7 55 10
14 3 75 14 135 25 61 12 180 34 265 50 85 16 169 32 185 35 17 2 41 7 55 10
14 3 41 8 60 11 50 9 57 11 240 45 91 17 174 33 185 35 11 2 33 6 48 10 16 3
38 7 50 9 12 1 180 32 372 69 193 37 364 69 380 71 17 3 50 9 75 15 25 5 97
19 160 30 63 11 135 25 160 30 25 6 59 12 75 15 17 3 41 7 55 10 14 3 39 8 55
10 17 3 64 12 105 20 41 8 87 17 103 19 15 3 35 7 45 10 9 3 33 7 52 10 29 4
393 73 480 91 14 3 52 10 85 15 33 6 92 17 130 25 39 8 86 17 105 20 19 3 78
14 130 25 52 10 147 28 210 40 63 12 159 30 213 41 53 10 112 21 130 24 17 3
64 12 102 20 39 8 81 16 95 19 36 6 622 123 700 140 36 8 66 13 67 12 0 0 4
-18 7 -40 22 -137 171 -252 379 -292 10 -2 26 -5 35 -8 55 -16 216 -29 342
-28 494 3 943 160 1049 365 26 50 29 65 30 132 l1 50 893 -2 c5252 -13 5307
-13 5307 2 0 8 -4 15 -9 15 -5 0 -11 8 -15 18 -3 9 -58 98 -121 197 -101 157
-115 184 -110 210 4 17 8 41 11 55 3 14 7 33 10 42 3 10 7 29 10 42 2 13 29
138 60 277 30 140 57 263 59 274 8 35 25 119 30 144 2 12 9 28 14 35 9 10 -34
77 -165 261 -7 11 -31 45 -52 75 -21 30 -69 100 -107 155 -173 252 -205 299
-201 302 2 2 23 -5 47 -15 24 -11 94 -41 154 -67 61 -26 142 -64 180 -83 124
-63 166 -82 159 -70 -22 36 -514 739 -571 816 -23 31 -40 58 -39 60 7 6 389
-80 530 -120 38 -11 76 -21 85 -23 42 -10 222 -64 232 -71 28 -17 -268 382
-957 1292 -71 94 -138 183 -149 198 -11 16 -25 33 -30 40 -6 6 -44 56 -85 111
-41 54 -80 106 -87 115 -7 8 -50 65 -95 125 -46 61 -147 193 -224 295 -117
154 -200 264 -246 325 -4 6 -18 24 -31 40 -13 17 -95 125 -182 240 -153 202
-225 297 -393 518 -43 56 -136 179 -207 272 -197 260 -403 532 -467 615 -72
94 -63 82 -128 167 l-55 73 -200 65 c-178 58 -528 158 -595 170 -33 6 -56 11
-115 25 -27 6 -59 13 -70 15 -11 2 -69 13 -130 25 -563 107 -1219 134 -1715
70 -41 -6 -97 -13 -125 -16 -27 -3 -61 -7 -75 -10 -14 -2 -41 -7 -60 -10 -19
-3 -46 -7 -60 -10 -14 -2 -41 -7 -60 -10 -19 -2 -62 -11 -95 -19 -33 -8 -71
-16 -85 -19 -83 -14 -348 -85 -474 -127 -72 -23 -68 -23 -62 -1 2 9 7 53 11
97 3 44 8 96 10 115 22 209 22 684 0 809 -2 14 -7 44 -9 66 -27 215 -95 427
-184 575 -51 83 -138 179 -222 243 -30 23 -57 44 -60 47 -7 7 -93 60 -150 92
-75 42 -219 95 -330 122 -106 26 -129 29 -255 43 -127 13 -480 6 -585 -12 -14
-2 -50 -7 -80 -10 -48 -6 -98 -14 -247 -39 -60 -11 -88 -16 -108 -20 -11 -2
-74 -16 -140 -29 -153 -32 -322 -74 -605 -148 -246 -65 -311 -83 -720 -200
-375 -106 -672 -190 -690 -194 -8 -2 -105 -28 -215 -59 -265 -72 -787 -208
-890 -231 -28 -7 -214 -43 -250 -50 -47 -8 -146 -18 -195 -19 -49 -1 -47 -6
-64 129 -4 28 -9 62 -11 78 -3 15 -7 39 -10 55 -2 15 -12 77 -21 137 -9 61
-17 117 -19 125 -2 8 -6 43 -10 78 -7 59 -12 67 -43 63 -10 -2 -8 6 5 26 24
39 112 152 145 188 34 36 35 45 6 40 -22 -4 -22 -4 -4 10 23 17 369 191 446
224 30 13 73 32 95 42 163 73 583 212 770 254 6 2 30 8 55 15 25 7 54 14 65
16 11 2 31 6 45 9 14 3 35 7 48 10 13 2 32 7 41 10 17 5 70 15 266 50 91 16
326 51 400 59 285 32 473 49 680 61 55 3 129 8 165 10 78 5 320 14 525 20 83
3 335 5 561 6 403 1 411 1 460 -21 128 -58 153 -68 279 -115 250 -93 535 -172
779 -215 117 -21 120 -22 186 -75 297 -237 780 -423 1245 -479 22 -3 60 -8 85
-11 184 -23 500 -23 680 0 71 9 176 25 195 29 452 98 754 268 954 536 31 42
65 93 76 114 16 30 33 44 83 67 55 26 73 29 138 26 41 -1 74 1 74 6 0 5 -9 22
-20 37 l-21 29 23 12 c22 12 139 96 196 141 15 12 79 74 142 138 246 248 414
550 514 920 22 83 32 137 61 315 4 22 8 130 11 240 4 196 -4 301 -31 450 -3
17 -8 39 -9 50 -45 251 -155 519 -302 741 -66 100 -74 116 -74 160 0 27 -4 78
-9 114 -5 36 -12 92 -16 125 -16 150 -83 451 -156 695 -167 561 -459 1228
-789 1800 -40 69 -81 139 -91 157 -127 222 -392 609 -578 843 -136 171 -358
409 -462 495 -13 11 -45 37 -71 58 -30 25 -51 52 -58 75 -63 201 -207 513
-335 727 -276 459 -669 900 -1130 1266 -596 474 -1277 803 -1895 914 -139 25
-255 35 -417 36 -115 1 -123 2 -129 22 -6 20 -62 117 -74 127 -3 3 -24 30 -47
60 -45 60 -138 151 -218 216 -202 162 -563 321 -860 379 -94 19 -186 34 -230
39 -27 3 -75 8 -105 12 -56 6 -347 13 -352 9z m2849 -12750 c243 -40 411 -162
506 -365 16 -36 34 -73 38 -82 5 -10 9 -25 9 -33 0 -8 5 -23 10 -33 11 -19 56
-184 96 -350 14 -59 31 -134 39 -167 21 -86 86 -375 92 -405 2 -13 11 -55 19
-93 8 -39 13 -71 12 -71 -2 -1 -57 -26 -123 -56 -141 -64 -395 -193 -445 -227
-19 -12 -38 -23 -41 -23 -17 0 -336 -204 -504 -321 -65 -46 -294 -220 -335
-255 -14 -12 -63 -54 -110 -94 -101 -86 -229 -202 -315 -285 -113 -108 -95
-103 -152 -48 -209 202 -442 376 -731 545 -164 96 -594 293 -748 343 -27 9
-58 20 -69 25 -160 71 -828 237 -1065 265 -14 1 -59 7 -100 13 -71 11 -108 16
-197 27 -37 4 -106 11 -208 20 -291 25 -825 25 -1104 0 -105 -10 -236 -24
-271 -30 -14 -2 -45 -7 -70 -10 -25 -3 -56 -8 -70 -10 -74 -12 -160 -27 -197
-34 l-42 -8 3 151 c3 83 5 196 5 251 l1 101 312 0 c172 1 354 4 403 8 50 4
113 9 140 11 46 3 116 10 205 20 19 2 60 7 90 10 61 7 75 9 175 24 39 6 84 13
100 15 28 4 226 40 285 51 251 48 647 142 905 217 39 11 79 22 90 25 210 56
695 212 1410 453 484 164 966 314 1072 334 10 2 37 9 60 15 60 16 195 43 283
57 19 3 40 7 47 9 7 2 45 7 85 11 40 3 75 8 76 9 10 9 262 1 329 -10z"/>
<path d="M26890 19708 c-196 -21 -340 -63 -512 -149 -406 -201 -657 -515 -670
-836 -1 -29 -6 -53 -10 -53 -4 0 -8 7 -8 15 0 36 -141 441 -192 553 -101 218
-327 338 -618 327 -126 -4 -148 -7 -265 -36 -332 -84 -647 -282 -832 -522 -52
-67 -131 -213 -145 -265 -29 -113 -35 -160 -33 -249 3 -106 16 -162 72 -300
52 -129 97 -261 169 -503 61 -203 95 -309 114 -355 5 -11 12 -31 16 -45 29
-108 122 -235 207 -283 l38 -21 -43 -41 c-113 -107 -184 -228 -251 -425 -32
-94 -82 -275 -93 -340 -3 -14 -7 -33 -10 -42 -3 -10 -8 -30 -10 -45 -3 -16
-14 -68 -24 -118 -11 -49 -21 -101 -24 -115 -35 -190 -110 -491 -166 -664 -57
-176 -116 -319 -192 -466 -66 -129 -186 -320 -200 -320 -4 0 -8 -5 -8 -11 0
-6 -6 -16 -12 -24 -7 -7 -31 -35 -53 -62 -149 -182 -370 -370 -539 -458 -367
-193 -712 -111 -871 205 -30 60 -72 166 -79 202 -3 13 -8 34 -11 48 -12 48
-13 55 -20 110 -4 30 -9 66 -11 80 -25 146 -24 615 1 765 3 17 8 46 11 65 3
19 8 46 10 60 47 278 169 575 349 845 66 99 183 261 210 291 13 15 34 43 140
179 80 103 206 283 231 330 6 11 29 55 52 98 56 105 99 228 128 362 29 135 25
370 -9 539 -27 134 -44 166 -125 241 -31 29 -119 72 -162 80 -18 3 -36 8 -40
10 -18 11 -159 20 -305 20 -146 -1 -383 -12 -395 -20 -3 -2 -44 -6 -92 -10
-49 -3 -96 -8 -105 -9 -16 -3 -45 -7 -158 -22 -38 -4 -302 -43 -335 -49 -14
-2 -43 -6 -64 -10 -21 -3 -48 -8 -60 -10 -12 -3 -37 -7 -56 -9 -44 -5 -504
-91 -630 -118 -52 -11 -108 -22 -125 -24 -16 -3 -37 -7 -45 -10 -7 -3 -57 -14
-110 -24 -82 -17 -191 -41 -240 -54 -16 -4 -145 -35 -170 -41 -20 -4 -226 -58
-325 -85 -258 -69 -455 -145 -550 -210 -165 -115 -304 -347 -409 -685 -30 -97
-77 -304 -92 -402 -3 -21 -9 -65 -15 -98 -30 -198 -30 -575 1 -695 5 -19 14
-57 21 -85 21 -89 85 -210 143 -270 90 -92 224 -140 341 -123 75 11 82 13 185
58 198 88 546 197 880 277 58 14 110 26 115 27 47 12 87 18 91 13 3 -3 -3 -22
-14 -44 -56 -109 -250 -635 -267 -723 -2 -8 -15 -55 -29 -105 -27 -94 -83
-343 -91 -403 -2 -19 -7 -42 -9 -51 -5 -18 -11 -57 -22 -146 -3 -33 -8 -67 -9
-76 -26 -143 -26 -776 0 -819 2 -3 7 -35 10 -70 4 -36 8 -67 10 -71 2 -3 7
-21 10 -40 11 -66 65 -265 93 -349 86 -249 215 -494 374 -709 82 -110 78 -106
195 -230 144 -153 364 -317 548 -409 119 -59 294 -119 435 -148 77 -17 83 -18
185 -31 118 -15 429 -8 540 12 160 29 211 40 329 75 678 198 1273 625 1730
1240 43 57 97 133 121 170 84 129 135 210 135 215 0 2 14 28 31 57 74 124 191
369 255 531 21 53 41 97 45 97 4 0 14 -6 21 -13 7 -7 51 -46 98 -87 145 -127
189 -168 401 -381 185 -186 213 -210 280 -242 93 -44 167 -59 272 -56 74 3
207 30 232 49 6 4 30 15 55 24 152 59 430 282 585 470 22 27 45 54 50 60 37
39 167 224 232 331 94 154 212 424 229 525 3 14 7 32 10 40 15 38 31 203 29
285 -8 234 -86 376 -305 551 -99 78 -199 164 -325 277 -114 103 -522 511 -640
641 -50 54 -103 113 -120 130 -16 18 -50 54 -74 82 -245 273 -447 474 -574
570 -77 58 -94 76 -80 81 178 62 306 125 463 227 329 216 526 487 540 746 0
14 17 -24 37 -85 158 -491 342 -1071 350 -1102 8 -35 95 -135 150 -174 229
-159 689 -96 1111 153 422 250 640 578 591 890 -12 78 -129 467 -232 778 -9
25 -75 227 -147 450 -163 502 -163 501 -206 565 -124 187 -370 284 -644 253z"/>
<path d="M24987 8663 c-1 -1 -67 -4 -147 -8 -154 -6 -225 -10 -330 -20 -36 -3
-92 -7 -125 -10 -33 -3 -76 -7 -95 -10 -19 -3 -60 -8 -90 -11 -30 -3 -66 -7
-80 -9 -24 -2 -152 -21 -215 -31 -16 -3 -41 -7 -55 -9 -31 -4 -113 -18 -120
-20 -3 -1 -27 -5 -55 -10 -27 -4 -57 -9 -65 -11 -8 -2 -58 -13 -110 -24 -52
-11 -103 -22 -115 -25 -16 -3 -120 -30 -190 -49 -50 -14 -152 -60 -215 -97
-359 -212 -702 -719 -835 -1234 -57 -218 -53 -403 10 -525 27 -52 95 -120 147
-146 87 -44 160 -47 320 -14 57 12 112 24 123 26 30 6 253 42 305 49 25 3 56
8 70 10 14 2 50 7 80 10 30 3 66 7 80 10 14 2 54 7 90 10 36 3 76 7 90 9 36 6
154 16 365 31 361 25 1002 26 1370 1 91 -6 220 -17 245 -21 14 -2 54 -7 90
-10 36 -4 76 -8 90 -10 14 -2 50 -6 80 -10 50 -6 315 -51 350 -60 8 -2 23 -4
33 -4 9 -1 17 -6 17 -13 0 -7 -39 -71 -87 -142 -106 -159 -134 -224 -139 -322
-10 -213 138 -367 411 -430 160 -36 429 -39 667 -8 184 25 443 92 598 157 14
6 27 11 30 12 86 29 292 159 365 231 43 43 246 258 316 335 13 15 54 60 91
100 104 116 214 246 290 344 38 50 76 99 85 110 36 42 173 260 212 334 150
289 142 543 -23 699 -59 56 -155 107 -368 195 -502 208 -1090 374 -1710 482
-16 3 -43 8 -60 11 -18 3 -48 7 -67 10 -19 2 -48 7 -65 10 -45 7 -75 12 -136
19 -30 4 -63 9 -72 10 -9 2 -41 6 -70 9 -29 4 -69 8 -88 11 -19 2 -64 7 -100
10 -36 3 -81 8 -100 10 -36 4 -157 14 -252 20 -199 13 -833 27 -841 18z"/>
<path d="M23565 3610 c-131 -20 -183 -33 -310 -77 -116 -41 -252 -104 -359
-168 -83 -49 -158 -97 -166 -105 -3 -3 -21 -17 -40 -30 -62 -42 -213 -173
-277 -240 -104 -110 -122 -132 -188 -231 -122 -180 -175 -327 -180 -499 -4
-126 10 -200 59 -305 99 -214 275 -342 713 -521 113 -46 437 -160 483 -169 8
-2 74 -19 145 -38 150 -41 397 -96 505 -113 52 -8 69 -11 140 -24 36 -7 76
-13 90 -15 84 -11 273 -35 315 -39 28 -3 68 -8 90 -10 37 -4 121 -12 235 -21
332 -26 1047 -27 1371 0 20 1 81 6 135 10 55 3 113 8 129 10 17 2 57 7 90 10
113 12 150 16 330 41 174 23 200 27 275 40 19 3 46 8 60 10 14 3 59 11 100 19
41 9 84 17 95 19 217 42 475 173 678 344 41 34 225 218 257 257 224 269 403
623 454 899 43 237 -4 441 -128 553 -103 93 -205 120 -366 98 -30 -4 -58 -9
-62 -11 -4 -3 -20 -7 -35 -9 -32 -5 -67 -12 -91 -19 -9 -3 -35 -8 -57 -11 -83
-12 -110 -17 -116 -20 -3 -2 -28 -7 -55 -11 -27 -3 -58 -8 -69 -10 -27 -6 -57
-10 -230 -34 -246 -33 -292 -38 -505 -56 -303 -24 -412 -28 -800 -29 -339 0
-538 6 -690 19 -117 11 -178 17 -200 21 -14 2 -52 7 -85 10 -33 3 -67 8 -75
10 -8 2 -35 6 -60 9 -25 3 -72 11 -105 17 -33 6 -69 12 -80 14 -250 42 -593
154 -785 257 -52 28 -119 64 -148 80 -86 45 -192 70 -322 73 -63 1 -137 -1
-165 -5z"/>
</g>
</svg>
